<?xml version="1.0" standalone="no"?>
<!DOCTYPE svg PUBLIC "-//W3C//DTD SVG 20010904//EN"
 "http://www.w3.org/TR/2001/REC-SVG-20010904/DTD/svg10.dtd">
<svg version="1.0" xmlns="http://www.w3.org/2000/svg"
 width="563.000000pt" height="563.000000pt" viewBox="0 0 563.000000 563.000000"
 preserveAspectRatio="xMidYMid meet">
<metadata>
Created by potrace 1.11, written by Peter Selinger 2001-2013
</metadata>
<g transform="translate(0.000000,563.000000) scale(0.100000,-0.100000)"
fill="#000000" stroke="none">
<path d="M3015 5152 c-3 -3 -55 -6 -117 -8 -111 -3 -263 -11 -263 -15 0 -1
-18 -3 -40 -4 -49 -3 -139 -13 -180 -19 -16 -3 -52 -7 -80 -10 -27 -3 -61 -8
-74 -11 -12 -2 -42 -7 -65 -10 -60 -7 -93 -12 -171 -25 -131 -22 -160 -27
-160 -30 0 -1 -11 -3 -24 -6 -29 -5 -130 -33 -151 -41 -8 -4 -18 -7 -22 -7 -3
-1 -10 -4 -14 -8 -4 -5 -15 -8 -24 -8 -54 0 -231 -124 -215 -150 3 -4 -1 -10
-7 -12 -13 -5 -15 -153 -8 -478 3 -153 2 -157 -23 -182 -23 -23 -29 -24 -218
-26 -292 -4 -361 -9 -446 -32 -202 -55 -404 -215 -493 -390 -21 -42 -70 -163
-74 -185 -1 -5 -5 -19 -9 -30 -39 -120 -64 -491 -43 -645 11 -80 23 -142 32
-172 3 -9 6 -25 8 -35 9 -46 60 -183 93 -248 94 -188 276 -369 448 -445 28
-13 58 -26 67 -31 37 -18 229 -51 322 -55 54 -2 102 -7 106 -9 5 -3 11 -2 14
3 3 4 21 7 42 7 20 -1 69 6 109 15 73 17 114 13 116 -12 1 -7 2 -193 3 -413 3
-404 5 -447 32 -543 26 -94 124 -177 299 -254 107 -47 146 -61 240 -84 77 -19
155 -37 175 -40 14 -2 36 -7 50 -10 13 -3 40 -7 60 -10 19 -2 60 -9 90 -14 71
-12 135 -21 260 -35 228 -26 314 -29 675 -30 358 0 473 5 725 30 41 4 89 9
105 10 46 4 123 14 200 26 39 6 81 12 95 14 129 16 382 78 525 127 131 46 256
113 315 169 82 78 112 159 115 313 16 643 17 801 25 2206 0 8 0 36 -1 62 -1
25 2 51 5 57 4 5 2 12 -3 15 -6 4 -6 18 -1 36 5 18 5 32 -1 36 -5 3 -6 10 -3
16 16 26 17 1092 1 1273 -4 53 -28 87 -85 124 -62 39 -187 88 -276 107 -90 20
-191 37 -286 50 -19 2 -48 6 -65 9 -16 2 -57 7 -90 11 -33 3 -71 8 -85 9 -14
2 -52 6 -85 9 -33 4 -78 8 -100 11 -40 5 -149 13 -305 22 -114 7 -1039 11
-1045 5z m-1962 -1388 c48 -9 56 -11 60 -13 1 -2 12 -4 24 -7 40 -7 141 -68
189 -114 65 -62 74 -88 79 -248 28 -850 28 -927 5 -971 -57 -113 -288 -230
-440 -224 -219 9 -417 143 -514 348 -44 93 -74 200 -81 295 -2 19 -6 64 -10
100 -18 166 13 374 73 495 51 105 111 178 197 239 134 97 265 128 418 100z"/>
</g>
</svg>
