<svg id="Layer_1" data-name="Layer 1" xmlns="http://www.w3.org/2000/svg" xmlns:xlink="http://www.w3.org/1999/xlink" viewBox="0 0 324.28 494.47"><defs><style>.cls-1{fill:url(#linear-gradient);}.cls-2{fill:url(#linear-gradient-2);}.cls-3{fill:url(#linear-gradient-3);}.cls-4{fill:url(#linear-gradient-4);}.cls-5{fill:#fbd837;}</style><linearGradient id="linear-gradient" x1="90.33" y1="373.81" x2="236.94" y2="373.81" gradientUnits="userSpaceOnUse"><stop offset="0" stop-color="#c14538"/><stop offset="1" stop-color="#c1272d"/></linearGradient><linearGradient id="linear-gradient-2" x1="184" y1="444" x2="184" y2="444" xlink:href="#linear-gradient"/><linearGradient id="linear-gradient-3" x1="175.17" y1="429.85" x2="182.99" y2="429.85" xlink:href="#linear-gradient"/><linearGradient id="linear-gradient-4" x1="249.46" y1="49.89" x2="249.46" y2="497.21" gradientUnits="userSpaceOnUse"><stop offset="0" stop-color="#fbb03b"/><stop offset="1" stop-color="#f7931e"/></linearGradient></defs><title>JcLogo</title><path class="cls-1" d="M183,431.7c14.33,4,26.48,2.9,34.87,2.93,4.16,0,7.61-1.16,9.47-1.32a13.24,13.24,0,0,0,4-.78l-0.05,53-4.28-.32c-3.52-.25-8-0.7-13.8-1.59a180.23,180.23,0,0,1-46-13.63l-0.21-.09-1.07-.44-0.09,0-0.36-.19-0.72-.37-1.46-.76-3-1.53-3-1.56-1.53-.79c-0.5-.26-1.23-0.72-1.83-1.07-5-3.07-10.51-6.14-14.86-9.77a126.29,126.29,0,0,1-25.81-25.68,111.75,111.75,0,0,1-17.84-34.42A107.14,107.14,0,0,1,90.55,354a104.31,104.31,0,0,1,10.22-37.32l2.14-4.2L104,310.4l0.27-.52c0.56-1,.2-0.35.34-0.61l0.07-.11,0.15-.22,0.58-.88,2.33-3.49a39.45,39.45,0,0,1,2.55-3.6c2.06-2.53,4.06-5.2,6.18-7.43s4.26-4.29,6.45-6.27a97.42,97.42,0,0,1,28.55-17.35,107,107,0,0,1,28.28-7.11,61.62,61.62,0,0,1,6.54-.51c2.14-.06,4.2-0.32,6.23-0.19a104.34,104.34,0,0,1,11.44.69l5.15,0.62c1.65,0.22,3.22.64,4.73,0.93a67.4,67.4,0,0,1,8.2,2c2.43,0.76,4.61,1.37,6.46,2l4.63,1.88,3.83,1.56-4-1-4.79-1.18c-1.91-.36-4.13-0.65-6.58-1a65,65,0,0,0-8.18-.77c-1.49-.06-3-0.25-4.63-0.23l-5,.13a98.84,98.84,0,0,0-10.82.92c-1.9.15-3.8,0.69-5.76,1a55.19,55.19,0,0,0-5.94,1.34,96.58,96.58,0,0,0-24.38,10.06,82.77,82.77,0,0,0-22,18.13c-1.54,1.88-2.94,3.88-4.44,5.81s-2.37,3.94-3.6,5.85a29.44,29.44,0,0,0-1.79,3.5l-1.8,3.79-0.45,1-0.11.24-0.06.12c0.1-.18-0.3.58,0.21-0.38l-0.15.45-0.59,1.79-1.19,3.57a80,80,0,0,0-3.61,29.32A79.37,79.37,0,0,0,141.12,404c6.45,6.14,12.89,12.16,20.22,15.85a71.86,71.86,0,0,0,7.7,4.5" transform="translate(-87.32 -2.74)"/><path class="cls-2" d="M184,444" transform="translate(-87.32 -2.74)"/><path class="cls-3" d="M175.17,428c1.06,0.37,3.63,1.81,4.67,2.17L183,431.7" transform="translate(-87.32 -2.74)"/><path class="cls-4" d="M259.72,49.89L268.3,56c3,2.25,6.91,5,11.17,8.31s9.07,7,14.37,11.43a451.25,451.25,0,0,1,36.66,33.8,351.78,351.78,0,0,1,41.14,51.14c13.23,20.4,25.59,44.53,32.92,72.35a204,204,0,0,1,3.81,89.38A221.87,221.87,0,0,1,395.26,367c-1.53,3.56-2.93,7.2-4.59,10.71l-5.14,10.44c-1.65,3.53-3.73,6.78-5.59,10.18l-2.87,5-0.72,1.26-0.48.83-0.18.28-0.37.57-1.47,2.27c-16.76,26.62-40.31,50.5-68.46,66.57a168.56,168.56,0,0,1-45,17.93,154.25,154.25,0,0,1-47.91,3.65A150.94,150.94,0,0,1,167,485.47q-2.66-1.11-5.25-2.31l-1.86-.86-1.16-.63-2.32-1.25-4.63-2.5-2.31-1.24L147,475c-3.31-2.23-6.78-4.37-9.83-6.72l-8.72-7.24a129.25,129.25,0,0,1-39.73-74,130.89,130.89,0,0,1,.14-38.83l1.76-9.13c0.75-3,1.71-5.87,2.54-8.75,0.45-1.43.81-2.88,1.34-4.27l1.69-4.1,1.68-4,0.83-2,0.41-1a4.68,4.68,0,0,1,.24-0.48l0.12-.23,0.24-.45,3.87-7.18c1.5-2.41,3.18-4.82,4.74-7.16a26.28,26.28,0,0,1,2.5-3.33l2.6-3.13c0.88-1,1.68-2.09,2.6-3l2.82-2.78a102.41,102.41,0,0,1,11.56-9.91l6.08-4c2-1.37,4.15-2.29,6.15-3.42l3-1.6c1-.51,2.08-0.88,3.1-1.32l6.07-2.47,6-1.84c1-.29,2-0.62,2.94-0.86l2.94-.59,5.69-1.14,5.52-.58a76.19,76.19,0,0,1,10.28-.43,97.83,97.83,0,0,1,29.48,5.11c3.25,1.15,5.64,2.29,7.29,2.93l2.48,1-2.56-.85c-1.7-.52-4.15-1.47-7.45-2.37A96,96,0,0,0,188.31,262a72.91,72.91,0,0,0-9.86,1.14l-5.23.94-5.34,1.5-2.75.77c-0.91.29-1.81,0.68-2.72,1l-5.57,2.15-5.53,2.75c-0.93.48-1.9,0.9-2.81,1.45l-2.72,1.71a65.33,65.33,0,0,0-5.48,3.6l-5.34,4.11A94.41,94.41,0,0,0,125,293l-2.38,2.71c-0.77.93-1.42,2-2.15,2.95l-2.14,3a21.26,21.26,0,0,0-2,3.09c-1.19,2.13-2.44,4.17-3.63,6.41l-3.33,7.44-0.21.47-0.11.24s-0.19.41,0,0l-0.31.94-0.62,1.88-1.25,3.79-1.26,3.81c-0.38,1.29-.6,2.63-0.91,3.95-0.55,2.66-1.23,5.3-1.71,8l-1,8.26A116.25,116.25,0,0,0,104.47,384a110.28,110.28,0,0,0,38.2,60.39l7.63,5.42c2.56,1.68,5.16,3,7.71,4.5l1.93,1.12,2.39,1.07,4.8,2.15,2.41,1.08,1.2,0.54a2,2,0,1,1-.28-0.15l0.28,0.1,0.57,0.21c1.51,0.57,3,1.11,4.57,1.62a124.28,124.28,0,0,0,38,6.5c25.87,0.26,51.65-8.17,73.26-22.91a153.33,153.33,0,0,0,29.28-26,163.36,163.36,0,0,0,12-15.44c2-2.66,3.36-5.25,5-7.84,1.56-2.3,3.39-5.89,5.1-8.94l1.3-2.37,0.32-.59,0.16-.3c0.12-.21-0.47.79-0.16,0.23l0.53-1.13,2.12-4.5c1.35-3,3-5.92,4.1-9l3.65-9c1.16-3,2.06-6.08,3.11-9.1,3.81-12.13,6.7-24.24,7.81-36.19a153.35,153.35,0,0,0-7.9-67.17c-7.07-20.5-18-38.57-29.84-54.14a291.83,291.83,0,0,0-37-39.51,387.28,387.28,0,0,0-33.36-26.44c-4.84-3.44-9.25-6.39-13.11-8.92s-7-4.43-9.6-6.1l-9-5.45Z" transform="translate(-87.32 -2.74)"/><path class="cls-5" d="M203.11,98.54a422.11,422.11,0,0,0-59.88-32.2l27.44-63.6a492.56,492.56,0,0,1,69.85,37.5Z" transform="translate(-87.32 -2.74)"/></svg>